<mxfile host="app.diagrams.net" modified="2023-08-04T22:59:00.671Z" agent="Mozilla/5.0 (Windows NT 10.0; Win64; x64) AppleWebKit/537.36 (KHTML, like Gecko) Chrome/115.0.0.0 Safari/537.36" etag="Br77c6-BKhpCsgNSWDqh" version="21.6.6" type="github">
  <diagram id="R2lEEEUBdFMjLlhIrx00" name="Page-1">
    <mxGraphModel dx="1900" dy="1634" grid="1" gridSize="10" guides="1" tooltips="1" connect="1" arrows="1" fold="1" page="1" pageScale="1" pageWidth="850" pageHeight="1100" math="0" shadow="0" extFonts="Permanent Marker^https://fonts.googleapis.com/css?family=Permanent+Marker">
      <root>
        <mxCell id="0" />
        <mxCell id="1" parent="0" />
        <mxCell id="lzxdpwF3XvLUEdlrSTsB-3" value="Locaciones" style="whiteSpace=wrap;html=1;align=center;" vertex="1" parent="1">
          <mxGeometry x="545" y="-10" width="70" height="30" as="geometry" />
        </mxCell>
        <mxCell id="lzxdpwF3XvLUEdlrSTsB-25" style="edgeStyle=orthogonalEdgeStyle;rounded=0;orthogonalLoop=1;jettySize=auto;html=1;exitX=0.5;exitY=1;exitDx=0;exitDy=0;entryX=0.5;entryY=0;entryDx=0;entryDy=0;endArrow=none;endFill=0;" edge="1" parent="1" source="lzxdpwF3XvLUEdlrSTsB-4" target="lzxdpwF3XvLUEdlrSTsB-20">
          <mxGeometry relative="1" as="geometry" />
        </mxCell>
        <mxCell id="lzxdpwF3XvLUEdlrSTsB-4" value="Presentador" style="whiteSpace=wrap;html=1;align=center;" vertex="1" parent="1">
          <mxGeometry x="370" y="520" width="70" height="30" as="geometry" />
        </mxCell>
        <mxCell id="lzxdpwF3XvLUEdlrSTsB-5" value="Artista" style="whiteSpace=wrap;html=1;align=center;" vertex="1" parent="1">
          <mxGeometry x="265" y="650" width="60" height="30" as="geometry" />
        </mxCell>
        <mxCell id="lzxdpwF3XvLUEdlrSTsB-27" style="edgeStyle=orthogonalEdgeStyle;rounded=0;orthogonalLoop=1;jettySize=auto;html=1;exitX=0.5;exitY=0;exitDx=0;exitDy=0;entryX=0;entryY=1;entryDx=0;entryDy=0;endArrow=none;endFill=0;" edge="1" parent="1" source="lzxdpwF3XvLUEdlrSTsB-6" target="lzxdpwF3XvLUEdlrSTsB-20">
          <mxGeometry relative="1" as="geometry" />
        </mxCell>
        <mxCell id="lzxdpwF3XvLUEdlrSTsB-6" value="Panelista" style="whiteSpace=wrap;html=1;align=center;" vertex="1" parent="1">
          <mxGeometry x="345" y="650" width="60" height="30" as="geometry" />
        </mxCell>
        <mxCell id="lzxdpwF3XvLUEdlrSTsB-28" style="edgeStyle=orthogonalEdgeStyle;rounded=0;orthogonalLoop=1;jettySize=auto;html=1;exitX=0.25;exitY=0;exitDx=0;exitDy=0;entryX=1;entryY=1;entryDx=0;entryDy=0;endArrow=none;endFill=0;" edge="1" parent="1" source="lzxdpwF3XvLUEdlrSTsB-7" target="lzxdpwF3XvLUEdlrSTsB-20">
          <mxGeometry relative="1" as="geometry" />
        </mxCell>
        <mxCell id="lzxdpwF3XvLUEdlrSTsB-7" value="Disertante" style="whiteSpace=wrap;html=1;align=center;" vertex="1" parent="1">
          <mxGeometry x="435" y="650" width="65" height="30" as="geometry" />
        </mxCell>
        <mxCell id="lzxdpwF3XvLUEdlrSTsB-8" value="Otro" style="whiteSpace=wrap;html=1;align=center;" vertex="1" parent="1">
          <mxGeometry x="515" y="650" width="30" height="30" as="geometry" />
        </mxCell>
        <mxCell id="lzxdpwF3XvLUEdlrSTsB-9" value="Empleado" style="whiteSpace=wrap;html=1;align=center;" vertex="1" parent="1">
          <mxGeometry x="860" y="250" width="60" height="30" as="geometry" />
        </mxCell>
        <mxCell id="lzxdpwF3XvLUEdlrSTsB-44" style="edgeStyle=orthogonalEdgeStyle;rounded=0;orthogonalLoop=1;jettySize=auto;html=1;exitX=0.5;exitY=1;exitDx=0;exitDy=0;entryX=0.5;entryY=0;entryDx=0;entryDy=0;endArrow=none;endFill=0;" edge="1" parent="1" source="lzxdpwF3XvLUEdlrSTsB-10" target="lzxdpwF3XvLUEdlrSTsB-36">
          <mxGeometry relative="1" as="geometry" />
        </mxCell>
        <mxCell id="lzxdpwF3XvLUEdlrSTsB-10" value="Stands" style="shape=ext;margin=3;double=1;whiteSpace=wrap;html=1;align=center;" vertex="1" parent="1">
          <mxGeometry x="-130" y="250" width="60" height="30" as="geometry" />
        </mxCell>
        <mxCell id="lzxdpwF3XvLUEdlrSTsB-11" value="Cliente" style="whiteSpace=wrap;html=1;align=center;" vertex="1" parent="1">
          <mxGeometry x="-125" y="440" width="50" height="30" as="geometry" />
        </mxCell>
        <mxCell id="lzxdpwF3XvLUEdlrSTsB-13" value="Persona" style="whiteSpace=wrap;html=1;align=center;" vertex="1" parent="1">
          <mxGeometry x="-60" y="-20" width="60" height="30" as="geometry" />
        </mxCell>
        <mxCell id="lzxdpwF3XvLUEdlrSTsB-23" style="edgeStyle=orthogonalEdgeStyle;rounded=0;orthogonalLoop=1;jettySize=auto;html=1;exitX=0.5;exitY=1;exitDx=0;exitDy=0;entryX=0.5;entryY=0;entryDx=0;entryDy=0;endArrow=none;endFill=0;" edge="1" parent="1" source="lzxdpwF3XvLUEdlrSTsB-60" target="lzxdpwF3XvLUEdlrSTsB-4">
          <mxGeometry relative="1" as="geometry" />
        </mxCell>
        <mxCell id="lzxdpwF3XvLUEdlrSTsB-47" style="edgeStyle=orthogonalEdgeStyle;rounded=0;orthogonalLoop=1;jettySize=auto;html=1;exitX=0;exitY=0.5;exitDx=0;exitDy=0;entryX=1;entryY=0.5;entryDx=0;entryDy=0;endArrow=none;endFill=0;" edge="1" parent="1" source="lzxdpwF3XvLUEdlrSTsB-16" target="lzxdpwF3XvLUEdlrSTsB-1">
          <mxGeometry relative="1" as="geometry" />
        </mxCell>
        <mxCell id="lzxdpwF3XvLUEdlrSTsB-48" style="edgeStyle=orthogonalEdgeStyle;rounded=0;orthogonalLoop=1;jettySize=auto;html=1;exitX=1;exitY=0.5;exitDx=0;exitDy=0;entryX=0;entryY=0.5;entryDx=0;entryDy=0;endArrow=none;endFill=0;" edge="1" parent="1" source="lzxdpwF3XvLUEdlrSTsB-16" target="lzxdpwF3XvLUEdlrSTsB-2">
          <mxGeometry relative="1" as="geometry" />
        </mxCell>
        <mxCell id="lzxdpwF3XvLUEdlrSTsB-16" value="presentacion" style="shape=rhombus;perimeter=rhombusPerimeter;whiteSpace=wrap;html=1;align=center;" vertex="1" parent="1">
          <mxGeometry x="360" y="240" width="90" height="50" as="geometry" />
        </mxCell>
        <mxCell id="lzxdpwF3XvLUEdlrSTsB-17" value="" style="swimlane;startSize=0;" vertex="1" parent="1">
          <mxGeometry x="180" y="180" width="480" height="170" as="geometry" />
        </mxCell>
        <mxCell id="lzxdpwF3XvLUEdlrSTsB-2" value="Salas" style="shape=ext;margin=3;double=1;whiteSpace=wrap;html=1;align=center;" vertex="1" parent="lzxdpwF3XvLUEdlrSTsB-17">
          <mxGeometry x="375" y="70" width="50" height="30" as="geometry" />
        </mxCell>
        <mxCell id="lzxdpwF3XvLUEdlrSTsB-18" value="PRESENTACION_EVENTO" style="text;html=1;align=center;verticalAlign=middle;resizable=0;points=[];autosize=1;strokeColor=none;fillColor=none;" vertex="1" parent="lzxdpwF3XvLUEdlrSTsB-17">
          <mxGeometry x="310" y="140" width="170" height="30" as="geometry" />
        </mxCell>
        <mxCell id="lzxdpwF3XvLUEdlrSTsB-1" value="Evento" style="whiteSpace=wrap;html=1;align=center;" vertex="1" parent="lzxdpwF3XvLUEdlrSTsB-17">
          <mxGeometry x="50" y="70" width="50" height="30" as="geometry" />
        </mxCell>
        <mxCell id="lzxdpwF3XvLUEdlrSTsB-26" style="edgeStyle=orthogonalEdgeStyle;rounded=0;orthogonalLoop=1;jettySize=auto;html=1;exitX=0;exitY=0.5;exitDx=0;exitDy=0;entryX=0.5;entryY=0;entryDx=0;entryDy=0;endArrow=none;endFill=0;" edge="1" parent="1" source="lzxdpwF3XvLUEdlrSTsB-20" target="lzxdpwF3XvLUEdlrSTsB-5">
          <mxGeometry relative="1" as="geometry" />
        </mxCell>
        <mxCell id="lzxdpwF3XvLUEdlrSTsB-29" style="edgeStyle=orthogonalEdgeStyle;rounded=0;orthogonalLoop=1;jettySize=auto;html=1;exitX=1;exitY=0.5;exitDx=0;exitDy=0;entryX=0.75;entryY=0;entryDx=0;entryDy=0;endArrow=none;endFill=0;" edge="1" parent="1" source="lzxdpwF3XvLUEdlrSTsB-20" target="lzxdpwF3XvLUEdlrSTsB-8">
          <mxGeometry relative="1" as="geometry" />
        </mxCell>
        <mxCell id="lzxdpwF3XvLUEdlrSTsB-20" value="D" style="ellipse;whiteSpace=wrap;html=1;" vertex="1" parent="1">
          <mxGeometry x="390" y="570" width="30" height="20" as="geometry" />
        </mxCell>
        <mxCell id="lzxdpwF3XvLUEdlrSTsB-24" style="edgeStyle=orthogonalEdgeStyle;rounded=0;orthogonalLoop=1;jettySize=auto;html=1;exitX=0.5;exitY=0;exitDx=0;exitDy=0;entryX=0.5;entryY=1;entryDx=0;entryDy=0;endArrow=none;endFill=0;" edge="1" parent="1" source="lzxdpwF3XvLUEdlrSTsB-38" target="lzxdpwF3XvLUEdlrSTsB-3">
          <mxGeometry relative="1" as="geometry" />
        </mxCell>
        <mxCell id="lzxdpwF3XvLUEdlrSTsB-49" style="edgeStyle=orthogonalEdgeStyle;rounded=0;orthogonalLoop=1;jettySize=auto;html=1;exitX=0;exitY=0.5;exitDx=0;exitDy=0;entryX=1;entryY=0.5;entryDx=0;entryDy=0;endArrow=none;endFill=0;" edge="1" parent="1" source="lzxdpwF3XvLUEdlrSTsB-35" target="lzxdpwF3XvLUEdlrSTsB-2">
          <mxGeometry relative="1" as="geometry" />
        </mxCell>
        <mxCell id="lzxdpwF3XvLUEdlrSTsB-50" style="edgeStyle=orthogonalEdgeStyle;rounded=0;orthogonalLoop=1;jettySize=auto;html=1;exitX=1;exitY=0.5;exitDx=0;exitDy=0;entryX=0;entryY=0.5;entryDx=0;entryDy=0;endArrow=none;endFill=0;" edge="1" parent="1" source="lzxdpwF3XvLUEdlrSTsB-35" target="lzxdpwF3XvLUEdlrSTsB-9">
          <mxGeometry relative="1" as="geometry" />
        </mxCell>
        <mxCell id="lzxdpwF3XvLUEdlrSTsB-35" value="trabaja" style="shape=rhombus;perimeter=rhombusPerimeter;whiteSpace=wrap;html=1;align=center;" vertex="1" parent="1">
          <mxGeometry x="730" y="240" width="50" height="50" as="geometry" />
        </mxCell>
        <mxCell id="lzxdpwF3XvLUEdlrSTsB-45" style="edgeStyle=orthogonalEdgeStyle;rounded=0;orthogonalLoop=1;jettySize=auto;html=1;exitX=0.5;exitY=1;exitDx=0;exitDy=0;endArrow=none;endFill=0;" edge="1" parent="1" source="lzxdpwF3XvLUEdlrSTsB-36" target="lzxdpwF3XvLUEdlrSTsB-11">
          <mxGeometry relative="1" as="geometry" />
        </mxCell>
        <mxCell id="lzxdpwF3XvLUEdlrSTsB-36" value="alquila" style="shape=rhombus;perimeter=rhombusPerimeter;whiteSpace=wrap;html=1;align=center;" vertex="1" parent="1">
          <mxGeometry x="-122.5" y="350" width="45" height="40" as="geometry" />
        </mxCell>
        <mxCell id="lzxdpwF3XvLUEdlrSTsB-39" value="" style="edgeStyle=orthogonalEdgeStyle;rounded=0;orthogonalLoop=1;jettySize=auto;html=1;exitX=0.5;exitY=0;exitDx=0;exitDy=0;entryX=0.5;entryY=1;entryDx=0;entryDy=0;endArrow=none;endFill=0;" edge="1" parent="1" source="lzxdpwF3XvLUEdlrSTsB-2" target="lzxdpwF3XvLUEdlrSTsB-38">
          <mxGeometry relative="1" as="geometry">
            <mxPoint x="580" y="250" as="sourcePoint" />
            <mxPoint x="580" y="20" as="targetPoint" />
          </mxGeometry>
        </mxCell>
        <mxCell id="lzxdpwF3XvLUEdlrSTsB-38" value="ubicado" style="shape=rhombus;perimeter=rhombusPerimeter;whiteSpace=wrap;html=1;align=center;" vertex="1" parent="1">
          <mxGeometry x="555" y="95" width="50" height="40" as="geometry" />
        </mxCell>
        <mxCell id="lzxdpwF3XvLUEdlrSTsB-42" style="edgeStyle=orthogonalEdgeStyle;rounded=0;orthogonalLoop=1;jettySize=auto;html=1;exitX=1;exitY=0.5;exitDx=0;exitDy=0;entryX=0;entryY=0.5;entryDx=0;entryDy=0;endArrow=none;endFill=0;" edge="1" parent="1" source="lzxdpwF3XvLUEdlrSTsB-41" target="lzxdpwF3XvLUEdlrSTsB-1">
          <mxGeometry relative="1" as="geometry" />
        </mxCell>
        <mxCell id="lzxdpwF3XvLUEdlrSTsB-43" style="edgeStyle=orthogonalEdgeStyle;rounded=0;orthogonalLoop=1;jettySize=auto;html=1;exitX=0;exitY=0.5;exitDx=0;exitDy=0;entryX=1;entryY=0.5;entryDx=0;entryDy=0;endArrow=none;endFill=0;" edge="1" parent="1" source="lzxdpwF3XvLUEdlrSTsB-41" target="lzxdpwF3XvLUEdlrSTsB-10">
          <mxGeometry relative="1" as="geometry" />
        </mxCell>
        <mxCell id="lzxdpwF3XvLUEdlrSTsB-41" value="evento_tiene" style="shape=rhombus;double=1;perimeter=rhombusPerimeter;whiteSpace=wrap;html=1;align=center;" vertex="1" parent="1">
          <mxGeometry x="30" y="240" width="90" height="50" as="geometry" />
        </mxCell>
        <mxCell id="lzxdpwF3XvLUEdlrSTsB-55" style="edgeStyle=orthogonalEdgeStyle;rounded=0;orthogonalLoop=1;jettySize=auto;html=1;exitX=1;exitY=0.5;exitDx=0;exitDy=0;entryX=0;entryY=0.5;entryDx=0;entryDy=0;endArrow=none;endFill=0;" edge="1" parent="1" source="lzxdpwF3XvLUEdlrSTsB-51" target="lzxdpwF3XvLUEdlrSTsB-13">
          <mxGeometry relative="1" as="geometry" />
        </mxCell>
        <mxCell id="lzxdpwF3XvLUEdlrSTsB-62" style="edgeStyle=orthogonalEdgeStyle;rounded=0;orthogonalLoop=1;jettySize=auto;html=1;exitX=0.5;exitY=1;exitDx=0;exitDy=0;endArrow=none;endFill=0;" edge="1" parent="1" source="lzxdpwF3XvLUEdlrSTsB-51">
          <mxGeometry relative="1" as="geometry">
            <mxPoint x="-185" y="140" as="targetPoint" />
          </mxGeometry>
        </mxCell>
        <mxCell id="lzxdpwF3XvLUEdlrSTsB-51" value="compra" style="shape=rhombus;perimeter=rhombusPerimeter;whiteSpace=wrap;html=1;align=center;" vertex="1" parent="1">
          <mxGeometry x="-210" y="-25" width="50" height="40" as="geometry" />
        </mxCell>
        <mxCell id="lzxdpwF3XvLUEdlrSTsB-58" style="edgeStyle=orthogonalEdgeStyle;rounded=0;orthogonalLoop=1;jettySize=auto;html=1;exitX=0;exitY=0.5;exitDx=0;exitDy=0;entryX=1;entryY=0.5;entryDx=0;entryDy=0;endArrow=none;endFill=0;" edge="1" parent="1" source="lzxdpwF3XvLUEdlrSTsB-57" target="lzxdpwF3XvLUEdlrSTsB-13">
          <mxGeometry relative="1" as="geometry" />
        </mxCell>
        <mxCell id="lzxdpwF3XvLUEdlrSTsB-59" style="edgeStyle=orthogonalEdgeStyle;rounded=0;orthogonalLoop=1;jettySize=auto;html=1;exitX=0.5;exitY=1;exitDx=0;exitDy=0;entryX=0.75;entryY=0;entryDx=0;entryDy=0;endArrow=none;endFill=0;" edge="1" parent="1" source="lzxdpwF3XvLUEdlrSTsB-57" target="lzxdpwF3XvLUEdlrSTsB-63">
          <mxGeometry relative="1" as="geometry">
            <Array as="points">
              <mxPoint x="105" y="50" />
              <mxPoint x="-170" y="50" />
            </Array>
          </mxGeometry>
        </mxCell>
        <mxCell id="lzxdpwF3XvLUEdlrSTsB-57" value="asiste" style="shape=rhombus;perimeter=rhombusPerimeter;whiteSpace=wrap;html=1;align=center;" vertex="1" parent="1">
          <mxGeometry x="80" y="-30" width="50" height="50" as="geometry" />
        </mxCell>
        <mxCell id="lzxdpwF3XvLUEdlrSTsB-61" value="" style="edgeStyle=orthogonalEdgeStyle;rounded=0;orthogonalLoop=1;jettySize=auto;html=1;exitX=0.5;exitY=1;exitDx=0;exitDy=0;entryX=0.5;entryY=0;entryDx=0;entryDy=0;endArrow=none;endFill=0;" edge="1" parent="1" source="lzxdpwF3XvLUEdlrSTsB-16" target="lzxdpwF3XvLUEdlrSTsB-60">
          <mxGeometry relative="1" as="geometry">
            <mxPoint x="405" y="290" as="sourcePoint" />
            <mxPoint x="405" y="520" as="targetPoint" />
          </mxGeometry>
        </mxCell>
        <mxCell id="lzxdpwF3XvLUEdlrSTsB-60" value="realiza" style="shape=rhombus;perimeter=rhombusPerimeter;whiteSpace=wrap;html=1;align=center;" vertex="1" parent="1">
          <mxGeometry x="377.5" y="420" width="55" height="40" as="geometry" />
        </mxCell>
        <mxCell id="lzxdpwF3XvLUEdlrSTsB-65" style="edgeStyle=orthogonalEdgeStyle;rounded=0;orthogonalLoop=1;jettySize=auto;html=1;exitX=0.5;exitY=1;exitDx=0;exitDy=0;entryX=0;entryY=0.5;entryDx=0;entryDy=0;endArrow=none;endFill=0;" edge="1" parent="1" source="lzxdpwF3XvLUEdlrSTsB-63" target="lzxdpwF3XvLUEdlrSTsB-64">
          <mxGeometry relative="1" as="geometry" />
        </mxCell>
        <mxCell id="lzxdpwF3XvLUEdlrSTsB-69" style="edgeStyle=orthogonalEdgeStyle;rounded=0;orthogonalLoop=1;jettySize=auto;html=1;exitX=1;exitY=0.25;exitDx=0;exitDy=0;entryX=0;entryY=0.5;entryDx=0;entryDy=0;endArrow=none;endFill=0;" edge="1" parent="1" source="lzxdpwF3XvLUEdlrSTsB-63" target="lzxdpwF3XvLUEdlrSTsB-67">
          <mxGeometry relative="1" as="geometry" />
        </mxCell>
        <mxCell id="lzxdpwF3XvLUEdlrSTsB-63" value="Entrada" style="shape=ext;margin=3;double=1;whiteSpace=wrap;html=1;align=center;" vertex="1" parent="1">
          <mxGeometry x="-215" y="135" width="60" height="30" as="geometry" />
        </mxCell>
        <mxCell id="lzxdpwF3XvLUEdlrSTsB-66" style="edgeStyle=orthogonalEdgeStyle;rounded=0;orthogonalLoop=1;jettySize=auto;html=1;exitX=1;exitY=0.5;exitDx=0;exitDy=0;entryX=0.5;entryY=0;entryDx=0;entryDy=0;endArrow=none;endFill=0;" edge="1" parent="1" source="lzxdpwF3XvLUEdlrSTsB-64" target="lzxdpwF3XvLUEdlrSTsB-1">
          <mxGeometry relative="1" as="geometry">
            <Array as="points">
              <mxPoint x="40" y="210" />
              <mxPoint x="255" y="210" />
            </Array>
          </mxGeometry>
        </mxCell>
        <mxCell id="lzxdpwF3XvLUEdlrSTsB-64" value="pertenece" style="shape=rhombus;double=1;perimeter=rhombusPerimeter;whiteSpace=wrap;html=1;align=center;" vertex="1" parent="1">
          <mxGeometry x="-30" y="160" width="70" height="50" as="geometry" />
        </mxCell>
        <mxCell id="lzxdpwF3XvLUEdlrSTsB-68" style="edgeStyle=orthogonalEdgeStyle;rounded=0;orthogonalLoop=1;jettySize=auto;html=1;exitX=1;exitY=0.5;exitDx=0;exitDy=0;entryX=0.087;entryY=0.012;entryDx=0;entryDy=0;entryPerimeter=0;endArrow=none;endFill=0;" edge="1" parent="1" source="lzxdpwF3XvLUEdlrSTsB-67" target="lzxdpwF3XvLUEdlrSTsB-17">
          <mxGeometry relative="1" as="geometry" />
        </mxCell>
        <mxCell id="lzxdpwF3XvLUEdlrSTsB-67" value="entrada_presentacion" style="shape=rhombus;perimeter=rhombusPerimeter;whiteSpace=wrap;html=1;align=center;" vertex="1" parent="1">
          <mxGeometry x="10" y="65" width="130" height="70" as="geometry" />
        </mxCell>
      </root>
    </mxGraphModel>
  </diagram>
</mxfile>
